<?xml version="1.0" standalone="no"?>
<!DOCTYPE svg PUBLIC "-//W3C//DTD SVG 20010904//EN"
 "http://www.w3.org/TR/2001/REC-SVG-20010904/DTD/svg10.dtd">
<svg version="1.0" xmlns="http://www.w3.org/2000/svg"
 width="1920.000000pt" height="1080.000000pt" viewBox="0 0 1920.000000 1080.000000"
 preserveAspectRatio="xMidYMid meet">

<g transform="translate(0.000000,1080.000000) scale(0.100000,-0.100000)"
fill="#000000" stroke="none">
<path d="M9394 7851 c-34 -10 -83 -30 -110 -45 -57 -33 -1770 -1735 -1840
-1829 -108 -144 -122 -322 -38 -489 21 -43 201 -228 932 -961 826 -826 913
-911 974 -941 135 -68 281 -68 416 0 61 30 148 114 978 946 859 861 912 917
938 977 60 136 58 269 -5 401 -29 60 -104 137 -933 966 -686 687 -914 909
-956 932 -110 61 -239 77 -356 43z m1074 -1173 c486 -486 890 -895 898 -910
18 -35 18 -101 0 -136 -8 -15 -410 -422 -893 -904 -954 -953 -896 -901 -990
-883 -34 6 -136 104 -916 883 -483 482 -885 889 -893 904 -18 35 -18 101 0
136 8 15 289 301 625 637 l611 610 96 -96 97 -97 -17 -48 c-55 -159 -13 -352
100 -467 46 -47 114 -94 154 -109 l30 -10 0 -484 0 -484 -62 -31 c-179 -91
-279 -301 -237 -501 49 -233 286 -398 515 -359 199 35 350 183 386 379 34 184
-73 396 -242 482 l-60 30 0 485 0 485 26 6 c24 6 41 -9 176 -144 l151 -150
-17 -48 c-10 -27 -20 -83 -23 -124 -10 -140 40 -264 146 -362 157 -146 380
-164 563 -47 145 93 227 278 199 446 -49 287 -333 460 -605 367 l-48 -17 -151
151 -150 150 19 59 c27 83 25 218 -6 298 -29 76 -64 128 -127 187 -61 56 -112
83 -195 103 -85 20 -140 19 -234 -5 l-79 -20 -95 95 -95 95 166 165 165 165
64 0 65 0 883 -882z m-870 72 c100 -61 95 -211 -8 -262 -103 -52 -220 18 -220
132 0 27 8 58 20 78 28 45 76 72 130 72 27 0 58 -8 78 -20z m923 -923 c94 -62
90 -199 -7 -254 -105 -61 -224 10 -224 133 0 46 5 59 32 90 38 43 59 53 119
53 32 1 56 -6 80 -22z m-905 -928 c109 -102 38 -278 -107 -266 -135 11 -188
172 -87 263 33 30 46 34 110 31 45 -3 64 -9 84 -28z"/>
</g>
</svg>
